<svg viewBox="0 0 24 24" fill="none" width="24" height="24" xmlns="http://www.w3.org/2000/svg" xmlns:xlink="http://www.w3.org/1999/xlink">
    <style>
        :root, .palette0 {color: currentColor;
            --color0: #fafafb;
        }
    </style>
    <g fill="var(--color0, #fafafb)" clip-path="url(#error_clip0_153068_8)">
        <path d="M6.81 0.219C6.9506 0.0788 7.141 0 7.3395 0h9.321c0.1985 0 0.3889 0.0788 0.5295 0.219l6.591 6.591C23.9212 6.9506 24 7.141 24 7.3395v9.321c0 0.1985-0.0788 0.3889-0.219 0.5295l-6.591 6.591C17.0494 23.9212 16.859 24 16.6605 24h-9.321C7.141 24 6.9506 23.9212 6.81 23.781L0.219 17.19C0.0788 17.0494 0 16.859 0 16.6605v-9.321C0 7.141 0.0788 6.9506 0.219 6.81zM7.65 1.5 1.5 7.65v8.7l6.15 6.15h8.7l6.15-6.15v-8.7L16.35 1.5z" />
        <path d="M6.969 6.969c0.0697-0.0699 0.1524-0.1253 0.2435-0.1631C7.3037 6.7681 7.4014 6.7487 7.5 6.7487c0.0987 0 0.1963 0.0194 0.2874 0.0572C7.8786 6.8437 7.9613 6.8992 8.031 6.969L12 10.9395 15.969 6.969c0.0697-0.0697 0.1525-0.125 0.2436-0.1628 0.0911-0.0377 0.1888-0.0572 0.2874-0.0572 0.0986 0 0.1963 0.0195 0.2874 0.0572 0.0911 0.0377 0.1739 0.0931 0.2436 0.1628s0.125 0.1525 0.1628 0.2436c0.0377 0.0911 0.0571 0.1888 0.0571 0.2874 0 0.0986-0.0194 0.1963-0.0571 0.2874-0.0378 0.0911-0.0931 0.1739-0.1628 0.2436L13.0605 12l3.9705 3.969c0.0697 0.0697 0.125 0.1525 0.1628 0.2436 0.0377 0.0911 0.0571 0.1888 0.0571 0.2874s-0.0194 0.1963-0.0571 0.2874c-0.0378 0.0911-0.0931 0.1739-0.1628 0.2436s-0.1525 0.125-0.2436 0.1628c-0.0911 0.0377-0.1888 0.0571-0.2874 0.0571s-0.1963-0.0194-0.2874-0.0571c-0.0911-0.0378-0.1739-0.0931-0.2436-0.1628L12 13.0605 8.031 17.031c-0.0697 0.0697-0.1525 0.125-0.2436 0.1628-0.0911 0.0377-0.1888 0.0571-0.2874 0.0571-0.0986 0-0.1963-0.0194-0.2874-0.0571-0.0911-0.0378-0.1739-0.0931-0.2436-0.1628s-0.1251-0.1525-0.1628-0.2436C6.7685 16.6963 6.7491 16.5986 6.7491 16.5c0-0.0986 0.0194-0.1963 0.0571-0.2874 0.0377-0.0911 0.0931-0.1739 0.1628-0.2436L10.9395 12 6.969 8.031C6.8992 7.9613 6.8437 7.8786 6.8059 7.7875 6.7681 7.6963 6.7487 7.5987 6.7487 7.5c0-0.0987 0.0194-0.1963 0.0572-0.2874C6.8437 7.1214 6.8992 7.0387 6.969 6.969z" />
    </g>
    <defs>
        <clipPath id="error_clip0_153068_8">
            <rect fill="#fff" width="24" height="24" />
        </clipPath>
    </defs>
</svg>